<?xml version="1.0" encoding="utf-8"?>
<!-- Generator: Adobe Illustrator 19.0.0, SVG Export Plug-In . SVG Version: 6.00 Build 0)  -->
<svg version="1.1" id="Layer_1" xmlns="http://www.w3.org/2000/svg" xmlns:xlink="http://www.w3.org/1999/xlink" x="0px" y="0px"
	 viewBox="0 0 60 62" style="enable-background:new 0 0 60 62;" xml:space="preserve">
<style type="text/css">
	.st0{clip-path:url(#XMLID_6_);fill:#0159a7;}
</style>
<g>
	<defs>
		<rect id="XMLID_1_" x="-0.1" width="60.3" height="62"/>
	</defs>
	<clipPath id="XMLID_6_">
		<use xlink:href="#XMLID_1_"  style="overflow:visible;"/>
	</clipPath>
	<path id="XMLID_4_" class="st0" d="M52.1,8.1C46.8,2.9,39.9,0,32.5,0c-1.2,0-2.2,1-2.2,2.2c0,1.2,1,2.2,2.2,2.2
		c6.2,0,12.1,2.4,16.5,6.8s6.8,10.3,6.8,16.5c0,1.2,1,2.2,2.2,2.2c1.2,0,2.2-1,2.2-2.2C60.2,20.3,57.3,13.4,52.1,8.1"/>
	<path id="XMLID_3_" class="st0" d="M43,27.7c0,1.2,1,2.2,2.2,2.2c1.2,0,2.2-1,2.2-2.2c0-8.3-6.7-15-15-15h0c-1.2,0-2.2,1-2.2,2.2
		c0,1.2,1,2.2,2.2,2.2C38.3,17.2,43,21.9,43,27.7"/>
	<path id="XMLID_2_" class="st0" d="M38.2,38.9c-3.3-0.2-5.1,2.3-5.9,3.5c-0.7,1-0.4,2.4,0.6,3.1s2.4,0.4,3.1-0.6
		c1-1.4,1.4-1.6,2-1.6c1.9,0.2,9.4,5.7,10.1,7.4c0.2,0.5,0.2,1,0,1.6c-0.8,2.3-2.1,4-3.8,4.7c-1.6,0.7-3.5,0.7-5.6-0.2
		c-7.8-3.2-14.7-7.7-20.4-13.3c0,0,0,0,0,0C12.7,38,8.2,31.1,5,23.3c-0.9-2.1-0.9-4.1-0.2-5.6c0.8-1.7,2.4-3,4.7-3.8
		c0.6-0.2,1.1-0.2,1.6,0c1.7,0.8,7.2,8.2,7.4,10.1c0,0.6-0.2,1.1-1.6,2c-1,0.7-1.3,2.1-0.6,3.1c0.7,1,2.1,1.3,3.1,0.6
		c1.2-0.8,3.7-2.5,3.5-5.9c-0.2-3.5-7-12.8-10.3-14c-1.5-0.5-3-0.6-4.5,0c-3.5,1.2-6,3.3-7.3,6.1c-1.2,2.7-1.2,5.9,0.1,9.1
		c3.4,8.4,8.2,15.7,14.2,21.8c0,0,0,0,0,0c6.1,6,13.4,10.8,21.8,14.2c1.7,0.7,3.3,1,4.9,1c1.5,0,2.9-0.3,4.2-0.9
		c2.8-1.3,4.9-3.8,6.1-7.3c0.5-1.6,0.5-3.1,0-4.5C51,46,41.7,39.1,38.2,38.9"/>
</g>
</svg>
