<?xml version="1.0" standalone="no"?>
<!DOCTYPE svg PUBLIC "-//W3C//DTD SVG 20010904//EN"
 "http://www.w3.org/TR/2001/REC-SVG-20010904/DTD/svg10.dtd">
<svg version="1.0" xmlns="http://www.w3.org/2000/svg"
 width="216.000000pt" height="216.000000pt" viewBox="0 0 216.000000 216.000000"
 preserveAspectRatio="xMidYMid meet">
<metadata>
Created by potrace 1.11, written by Peter Selinger 2001-2013
</metadata>
<g transform="translate(0.000000,216.000000) scale(0.100000,-0.100000)"
fill="#000000" stroke="none">
<path d="M806 1435 l-266 -355 540 0 540 0 -266 355 c-147 195 -270 355 -274
355 -4 0 -127 -160 -274 -355z"/>
<path d="M266 715 l-266 -355 1080 0 1080 0 -266 355 c-147 195 -270 355 -274
355 -4 0 -126 -157 -270 -350 -144 -193 -265 -350 -270 -350 -4 0 -126 158
-270 350 -144 193 -266 350 -270 350 -4 0 -127 -160 -274 -355z"/>
</g>
</svg>
