<?xml version="1.0" standalone="no"?>
<!DOCTYPE svg PUBLIC "-//W3C//DTD SVG 20010904//EN"
 "http://www.w3.org/TR/2001/REC-SVG-20010904/DTD/svg10.dtd">
<svg version="1.0" xmlns="http://www.w3.org/2000/svg"
 width="129.000000pt" height="129.000000pt" viewBox="0 0 129.000000 129.000000"
 preserveAspectRatio="xMidYMid meet">
<metadata>
Created by potrace 1.11, written by Peter Selinger 2001-2013
</metadata>
<g transform="translate(0.000000,129.000000) scale(0.100000,-0.100000)"
fill="#000000" stroke="none">
<path d="M461 1083 l-64 -38 0 -180 0 -180 -54 -35 c-111 -72 -208 -200 -220
-291 -11 -78 39 -149 127 -184 54 -21 189 -30 245 -17 37 9 35 10 -30 9 -98
-1 -173 10 -223 34 -103 50 -125 146 -58 257 36 60 99 130 151 167 16 11 34
26 41 33 7 6 15 12 17 12 3 0 5 -69 5 -152 0 -84 1 -162 1 -173 1 -19 8 -20
100 -20 76 1 98 -2 94 -12 -3 -7 1 -13 8 -13 11 0 11 -2 0 -9 -9 -6 -15 -28
-16 -55 -2 -42 0 -46 22 -46 22 0 31 14 15 24 -9 5 -9 53 1 62 3 3 3 13 0 21
-3 8 -1 18 5 22 8 4 216 5 277 1 23 -2 42 7 70 36 17 16 42 38 56 49 36 28 99
113 120 163 54 124 -11 235 -155 269 -45 10 -174 9 -223 -3 -29 -6 -53 -10
-53 -7 0 2 -9 -1 -20 -7 -18 -10 -19 -6 -18 77 1 146 6 133 -73 181 -38 23
-73 42 -77 42 -4 0 -36 -17 -71 -37z m548 -280 c68 -19 130 -76 132 -119 4
-96 -50 -194 -158 -287 l-21 -19 -1 79 c-1 43 -1 123 -1 178 l0 100 -53 32
c-29 17 -66 35 -82 39 l-30 8 35 6 c50 8 115 2 179 -17z m-229 -8 c-7 -8 -17
-15 -22 -15 -16 0 -67 -43 -62 -52 3 -4 1 -8 -4 -8 -5 0 -9 18 -9 40 0 30 4
40 16 41 28 1 75 10 80 15 11 11 12 -7 1 -21z m-88 -172 c2 -28 0 -49 -4 -46
-5 2 -7 34 -7 71 2 71 6 61 11 -25z"/>
<path d="M1025 287 c-11 -72 -5 -92 30 -93 36 0 75 36 75 72 0 13 -3 24 -7 25
-5 0 -16 2 -25 4 -10 2 -19 -2 -19 -8 -1 -7 -3 -25 -4 -42 -4 -46 -4 -47 -19
-33 -11 10 -11 16 -2 27 8 11 8 15 -1 18 -10 4 -9 8 2 19 12 12 12 19 2 34
-18 30 -25 24 -32 -23z m85 -27 c0 -5 -5 -10 -11 -10 -5 0 -7 5 -4 10 3 6 8
10 11 10 2 0 4 -4 4 -10z"/>
<path d="M301 286 c-33 -39 -6 -105 37 -92 12 4 22 14 22 22 0 16 -16 19 -25
4 -10 -16 -25 -1 -25 26 0 15 6 24 15 24 8 0 15 -5 15 -12 0 -9 3 -9 12 0 8 8
8 15 -2 27 -16 19 -34 19 -49 1z"/>
<path d="M375 277 c-9 -33 -2 -83 10 -79 6 1 10 7 10 12 0 6 5 10 10 10 6 0
10 -4 10 -10 0 -5 5 -10 10 -10 6 0 10 20 10 45 0 25 -4 44 -10 43 -5 -2 -9
-9 -7 -15 2 -7 -5 -13 -14 -13 -10 0 -14 5 -11 15 4 8 2 17 -3 20 -5 3 -12 -5
-15 -18z"/>
<path d="M450 252 c0 -51 13 -68 45 -56 10 4 13 17 11 45 -2 21 0 39 4 39 10
0 22 -35 24 -64 1 -11 6 -21 13 -23 7 -3 11 3 9 14 -2 10 4 35 14 55 18 37 7
48 -17 18 -11 -13 -12 -13 -13 1 0 12 -8 16 -25 15 -26 -1 -28 -4 -27 -48 0
-16 -4 -28 -9 -28 -5 0 -9 15 -9 34 0 19 -4 38 -10 41 -6 4 -10 -13 -10 -43z"/>
<path d="M644 289 c-5 -8 -9 -21 -8 -29 1 -8 2 -27 3 -42 0 -16 6 -28 12 -28
6 0 9 9 6 20 -3 11 -1 20 3 20 5 0 12 -9 15 -20 3 -11 11 -20 16 -20 9 0 11
14 11 60 0 42 -2 51 -13 45 -6 -4 -8 -13 -5 -21 9 -23 -10 -16 -20 7 -8 17
-12 18 -20 8z"/>
<path d="M749 268 c-5 -45 0 -78 13 -78 6 0 8 12 5 27 -5 26 -4 26 9 8 8 -10
14 -22 14 -27 0 -20 20 -6 21 15 l0 22 16 -22 c18 -27 36 -29 57 -7 22 22 20
44 -5 44 -14 0 -19 -5 -16 -15 4 -8 2 -17 -2 -20 -10 -6 -20 24 -14 42 3 8 14
11 29 7 29 -7 32 11 5 26 -33 17 -58 -3 -52 -42 0 -5 -3 -8 -9 -8 -5 0 -10 14
-10 31 0 19 -4 28 -11 23 -6 -3 -9 -15 -6 -25 3 -11 1 -19 -4 -19 -5 0 -9 6
-9 14 0 7 -6 19 -14 25 -11 9 -14 5 -17 -21z"/>
<path d="M918 294 c-12 -11 -10 -104 2 -104 6 0 10 9 10 19 0 28 18 36 22 9 2
-12 9 -23 16 -26 7 -2 10 2 6 12 -3 9 -1 16 5 16 6 0 11 -7 11 -15 0 -8 4 -15
9 -15 5 0 8 25 8 55 -1 30 -5 55 -9 55 -8 0 -12 -22 -9 -52 1 -10 -2 -18 -7
-18 -5 0 -8 11 -7 24 2 13 -1 29 -6 37 -7 11 -10 9 -15 -8 -8 -29 -22 -30 -26
-2 -2 11 -6 17 -10 13z"/>
<path d="M1030 170 c0 -5 5 -10 10 -10 6 0 10 5 10 10 0 6 -4 10 -10 10 -5 0
-10 -4 -10 -10z"/>
</g>
</svg>
